<?xml version="1.0" encoding="utf-8"?>
<!-- Generator: Adobe Illustrator 21.1.0, SVG Export Plug-In . SVG Version: 6.00 Build 0)  -->
<svg version="1.1" id="Layer_1" xmlns="http://www.w3.org/2000/svg" xmlns:xlink="http://www.w3.org/1999/xlink" x="0px" y="0px"
	 viewBox="0 0 81 29" style="enable-background:new 0 0 81 29;" xml:space="preserve">
<style type="text/css">
	.st0{fill:url(#SVGID_1_);}
</style>
<title>logo-teal</title>
<linearGradient id="SVGID_1_" gradientUnits="userSpaceOnUse" x1="38.4687" y1="-3.2954" x2="44.625" y2="31.6189" gradientTransform="matrix(1 0 0 -1 0 30)">
	<stop  offset="0" style="stop-color:#00C9C9"/>
	<stop  offset="1" style="stop-color:#7C4490"/>
</linearGradient>
<path class="st0" d="M18.6,8.5c0,1.8,1.4,3.1,3.3,3.1c1.9,0,3.2-1.2,3.2-3c0-0.5-0.1-1.2-0.7-2.1c-1-1.4-2.5-2.4-4.1-3.1
	c-1.9-0.8-4-1-6.1-0.8c-0.4,0-0.8,0.1-1.1,0.1C5.4,3.7,0,8.5,0,16.5c0,8.7,7.6,12.4,15.2,12.4c3.3,0,8-0.9,9.6-1.9V15.8H14.4v0.8
	l3.5,0.6v9.8c-0.5,0-1,0.1-1.4,0.1c-5.9,0-8.2-5.6-8.2-11.5c0-4.8,1.9-8.6,4.5-10.4c0.6-0.4,1.2-0.7,1.9-0.9c0.3-0.1,0.6-0.1,1-0.2
	c1.3-0.1,2.7,0,3.9,0.5c0.3,0.1,0.6,0.3,0.8,0.4c0.3,0.2,0.6,0.3,0.8,0.5C19.7,5.7,18.6,6.9,18.6,8.5z M54.3,7.2
	c2.2,0,3.9-1.5,3.9-3.5s-1.7-3.5-3.9-3.5c-2.2,0-3.7,1.5-3.7,3.5C50.6,5.8,52.2,7.2,54.3,7.2z M45.2,26.2V15.1
	c0-4.2-2.9-6.6-7.8-6.6c-1,0-6.1,0.2-8.5,3.2c-0.6,0.8-0.7,1.6-0.7,2c0,1.7,1.2,2.9,3,2.9c1.8,0,3.1-1.2,3.1-2.9
	c0-1.5-1.1-2.7-2.7-2.8c0.7-0.3,1.8-0.6,3.2-0.6c0.1,0,0.2,0,0.3,0c2.1,0.1,3.4,1.5,3.4,4l0,3.7h-1.7c-6.1,0-9.9,2.3-9.9,5.9
	c0,3.5,2.7,5,5.5,5c3.2,0,5.8-2.7,6.3-3.2l1,2.8h8v-1.1L45.2,26.2z M37,24.9c-1.5,0-3-0.7-3-2.5c0-2.6,2.2-2.9,3.5-2.9l1.1,0v5.3
	C38.1,24.8,37.5,24.9,37,24.9z M57.4,8.5h-2.8l-6.9,2v1h3.2V27l-2.2,0.5v0.9h11v-0.9l-2.3-0.6L57.4,8.5L57.4,8.5z M81,27.4l-2.4-1.2
	V15.1c0-4.2-2.9-6.6-7.8-6.6c-1,0-6.1,0.2-8.5,3.2c-0.6,0.8-0.7,1.6-0.7,2c0,1.7,1.2,2.9,3,2.9c1.8,0,3.1-1.2,3.1-2.9
	c0-1.5-1.1-2.7-2.7-2.8c0.7-0.3,1.8-0.6,3.2-0.6c0.1,0,0.2,0,0.3,0c2.1,0.1,3.4,1.5,3.4,4l0,3.7h-1.7c-6.1,0-9.9,2.3-9.9,5.9
	c0,3.5,2.7,5,5.5,5c3.2,0,5.8-2.7,6.3-3.2l1,2.8h8L81,27.4z M70.3,24.9c-1.5,0-3-0.7-3-2.5c0-2.6,2.2-2.9,3.5-2.9l1.1,0v5.3
	C71.4,24.8,70.9,24.9,70.3,24.9z"/>
</svg>
